<svg xmlns="http://www.w3.org/2000/svg" xmlns:xlink="http://www.w3.org/1999/xlink" width="15" height="15" viewBox="0 0 15 15"><defs><path id="pz37a" d="M1120.5 24a7.5 7.5 0 1 1 0 15 7.5 7.5 0 0 1 0-15zm-6.12 7.5a6.06 6.06 0 1 0 12.12 0 6.06 6.06 0 0 0-12.12 0zm7.81 1.5h-2.29a.57.57 0 0 1-.57-.57v-3.48a.57.57 0 1 1 1.14 0v2.9h1.72a.57.57 0 1 1 0 1.15z"/></defs><g><g clip-path="url(#clip-979)" transform="translate(-1113 -24)"><use fill="#fff" xlink:href="#pz37a"/><use fill="#f26c4f" xlink:href="#pz37a"/></g></g></svg>