<svg xmlns="http://www.w3.org/2000/svg" xmlns:xlink="http://www.w3.org/1999/xlink" width="11" height="17" viewBox="0 0 11 17"><defs><path id="idgpa" d="M917.27 28.35c0-1.87 1.44-3.4 3.23-3.4a3.32 3.32 0 0 1 3.24 3.4c0 1.88-1.45 3.4-3.24 3.4a3.32 3.32 0 0 1-3.23-3.4zm-2.27.43c0 1.42 1.64 4.42 1.64 4.42l3.86 6.8 3.64-6.8s1.86-3.02 1.86-4.42c0-3.2-2.46-5.78-5.5-5.78a5.65 5.65 0 0 0-5.5 5.78z"/></defs><g><g transform="translate(-915 -23)"><use fill="#fff" xlink:href="#idgpa"/><use fill="#f26c4f" xlink:href="#idgpa"/></g></g></svg>